<?xml version="1.0" standalone="no"?><!DOCTYPE svg PUBLIC "-//W3C//DTD SVG 1.1//EN" "http://www.w3.org/Graphics/SVG/1.1/DTD/svg11.dtd"><svg t="1595948162853" class="icon" viewBox="0 0 1024 1024" version="1.1" xmlns="http://www.w3.org/2000/svg" p-id="13117" xmlns:xlink="http://www.w3.org/1999/xlink" width="200" height="200"><defs><style type="text/css"></style></defs><path d="M256 853.333333a42.666667 42.666667 0 0 0 42.666667 42.666667h426.666666a42.666667 42.666667 0 0 0 42.666667-42.666667V170.666667a42.666667 42.666667 0 0 0-42.666667-42.666667H298.666667a42.666667 42.666667 0 0 0-42.666667 42.666667v469.333333h384a42.666667 42.666667 0 1 1 0 85.333333H256v128z m42.666667 128a128 128 0 0 1-128-128V170.666667a128 128 0 0 1 128-128h426.666666a128 128 0 0 1 128 128v682.666666a128 128 0 0 1-128 128H298.666667z m128-170.666666a42.666667 42.666667 0 0 1 42.666666-42.666667h85.333334a42.666667 42.666667 0 1 1 0 85.333333h-85.333334a42.666667 42.666667 0 0 1-42.666666-42.666666z" fill="#75C82B" p-id="13118"></path></svg>